<mxfile host="www.draw.io" modified="2019-12-30T07:20:03.106Z" agent="Mozilla/5.0 (Macintosh; Intel Mac OS X 10_14_6) AppleWebKit/537.36 (KHTML, like Gecko) Chrome/79.0.3945.88 Safari/537.36" etag="LOOk5OWXxBxFozybDxfO" version="12.4.7" type="github">
  <diagram id="Zr4NyZuWZwrN4-Bo8Tzz" name="Page-1">
    <mxGraphModel dx="1351" dy="793" grid="1" gridSize="10" guides="1" tooltips="1" connect="1" arrows="1" fold="1" page="1" pageScale="1" pageWidth="1169" pageHeight="827" math="0" shadow="0">
      <root>
        <mxCell id="0"/>
        <mxCell id="1" parent="0"/>
        <mxCell id="vTWQuHcO4zp-v9k4uT0p-1" value="" style="shape=umlActor;verticalLabelPosition=bottom;labelBackgroundColor=#ffffff;verticalAlign=top;html=1;outlineConnect=0;" parent="1" vertex="1">
          <mxGeometry x="70" y="162.5" width="30" height="60" as="geometry"/>
        </mxCell>
        <mxCell id="vTWQuHcO4zp-v9k4uT0p-2" value="/login&lt;br&gt;/account&lt;br&gt;/giro&lt;br&gt;/bankpay" style="ellipse;whiteSpace=wrap;html=1;aspect=fixed;" parent="1" vertex="1">
          <mxGeometry x="570" y="151.25" width="132.5" height="132.5" as="geometry"/>
        </mxCell>
        <mxCell id="vTWQuHcO4zp-v9k4uT0p-4" value="&lt;h1&gt;Resource Owner&lt;/h1&gt;&lt;p&gt;클라이언트에 접속하는 사용자&lt;/p&gt;" style="text;html=1;strokeColor=none;fillColor=none;spacing=5;spacingTop=-20;whiteSpace=wrap;overflow=hidden;rounded=0;align=center;" parent="1" vertex="1">
          <mxGeometry y="47.5" width="220" height="70" as="geometry"/>
        </mxCell>
        <mxCell id="vTWQuHcO4zp-v9k4uT0p-5" value="&lt;h1&gt;Intergrated Gateway&lt;/h1&gt;&lt;p&gt;통합 게이트웨이&lt;/p&gt;" style="text;html=1;strokeColor=none;fillColor=none;spacing=5;spacingTop=-20;whiteSpace=wrap;overflow=hidden;rounded=0;align=center;" parent="1" vertex="1">
          <mxGeometry x="501.25" y="47.5" width="270" height="70" as="geometry"/>
        </mxCell>
        <mxCell id="flYOupQVGdBc7dxFPT26-1" value="" style="endArrow=classic;html=1;" parent="1" edge="1">
          <mxGeometry width="50" height="50" relative="1" as="geometry">
            <mxPoint x="120" y="176" as="sourcePoint"/>
            <mxPoint x="260" y="176" as="targetPoint"/>
          </mxGeometry>
        </mxCell>
        <mxCell id="flYOupQVGdBc7dxFPT26-2" value="&lt;font style=&quot;font-size: 21px&quot;&gt;AccountInfo&lt;br&gt;scope:A&lt;br&gt;&lt;/font&gt;" style="ellipse;whiteSpace=wrap;html=1;" parent="1" vertex="1">
          <mxGeometry x="330" y="450" width="140" height="140" as="geometry"/>
        </mxCell>
        <mxCell id="flYOupQVGdBc7dxFPT26-3" value="" style="shape=datastore;whiteSpace=wrap;html=1;" parent="1" vertex="1">
          <mxGeometry x="370" y="610" width="60" height="60" as="geometry"/>
        </mxCell>
        <mxCell id="Tt6b6GPpEEZbe05YhQ2s-1" value="" style="endArrow=none;html=1;entryX=0.5;entryY=1;entryDx=0;entryDy=0;exitX=0.5;exitY=0;exitDx=0;exitDy=0;" edge="1" parent="1" source="flYOupQVGdBc7dxFPT26-3" target="flYOupQVGdBc7dxFPT26-2">
          <mxGeometry width="50" height="50" relative="1" as="geometry">
            <mxPoint x="10" y="740" as="sourcePoint"/>
            <mxPoint x="60" y="690" as="targetPoint"/>
          </mxGeometry>
        </mxCell>
        <mxCell id="Tt6b6GPpEEZbe05YhQ2s-2" value="&lt;font style=&quot;font-size: 21px&quot;&gt;Giro&lt;br&gt;scope:B&lt;br&gt;&lt;/font&gt;" style="ellipse;whiteSpace=wrap;html=1;" vertex="1" parent="1">
          <mxGeometry x="580" y="450" width="140" height="140" as="geometry"/>
        </mxCell>
        <mxCell id="Tt6b6GPpEEZbe05YhQ2s-3" value="" style="shape=datastore;whiteSpace=wrap;html=1;" vertex="1" parent="1">
          <mxGeometry x="620" y="610" width="60" height="60" as="geometry"/>
        </mxCell>
        <mxCell id="Tt6b6GPpEEZbe05YhQ2s-4" value="" style="endArrow=none;html=1;entryX=0.5;entryY=1;entryDx=0;entryDy=0;exitX=0.5;exitY=0;exitDx=0;exitDy=0;" edge="1" source="Tt6b6GPpEEZbe05YhQ2s-3" target="Tt6b6GPpEEZbe05YhQ2s-2" parent="1">
          <mxGeometry width="50" height="50" relative="1" as="geometry">
            <mxPoint x="260" y="740" as="sourcePoint"/>
            <mxPoint x="310" y="690" as="targetPoint"/>
          </mxGeometry>
        </mxCell>
        <mxCell id="Tt6b6GPpEEZbe05YhQ2s-5" value="&lt;font style=&quot;font-size: 21px&quot;&gt;BankPay&lt;br&gt;scope:C&lt;br&gt;&lt;/font&gt;" style="ellipse;whiteSpace=wrap;html=1;" vertex="1" parent="1">
          <mxGeometry x="820" y="450" width="140" height="140" as="geometry"/>
        </mxCell>
        <mxCell id="Tt6b6GPpEEZbe05YhQ2s-6" value="" style="shape=datastore;whiteSpace=wrap;html=1;" vertex="1" parent="1">
          <mxGeometry x="860" y="610" width="60" height="60" as="geometry"/>
        </mxCell>
        <mxCell id="Tt6b6GPpEEZbe05YhQ2s-7" value="" style="endArrow=none;html=1;entryX=0.5;entryY=1;entryDx=0;entryDy=0;exitX=0.5;exitY=0;exitDx=0;exitDy=0;" edge="1" source="Tt6b6GPpEEZbe05YhQ2s-6" target="Tt6b6GPpEEZbe05YhQ2s-5" parent="1">
          <mxGeometry width="50" height="50" relative="1" as="geometry">
            <mxPoint x="500" y="740" as="sourcePoint"/>
            <mxPoint x="550" y="690" as="targetPoint"/>
          </mxGeometry>
        </mxCell>
        <mxCell id="Tt6b6GPpEEZbe05YhQ2s-8" value="로그인(id, pass)" style="text;html=1;strokeColor=none;fillColor=none;align=center;verticalAlign=middle;whiteSpace=wrap;rounded=0;fontSize=14;" vertex="1" parent="1">
          <mxGeometry x="140" y="145" width="100" height="20" as="geometry"/>
        </mxCell>
        <mxCell id="Tt6b6GPpEEZbe05YhQ2s-9" value="&lt;h1&gt;Resource Server&lt;/h1&gt;&lt;p&gt;자원서버(API 제공)&lt;/p&gt;" style="text;html=1;strokeColor=none;fillColor=none;spacing=5;spacingTop=-20;whiteSpace=wrap;overflow=hidden;rounded=0;align=center;" vertex="1" parent="1">
          <mxGeometry x="515" y="690" width="270" height="70" as="geometry"/>
        </mxCell>
        <mxCell id="Tt6b6GPpEEZbe05YhQ2s-10" value="" style="verticalLabelPosition=bottom;verticalAlign=top;html=1;shadow=0;dashed=0;strokeWidth=1;shape=mxgraph.android.phone2;strokeColor=#c0c0c0;fontSize=14;" vertex="1" parent="1">
          <mxGeometry x="270" y="125" width="100" height="185" as="geometry"/>
        </mxCell>
        <mxCell id="Tt6b6GPpEEZbe05YhQ2s-11" value="&lt;h1&gt;Client&lt;/h1&gt;&lt;p&gt;smartphone, web&lt;/p&gt;" style="text;html=1;strokeColor=none;fillColor=none;spacing=5;spacingTop=-20;whiteSpace=wrap;overflow=hidden;rounded=0;align=center;" vertex="1" parent="1">
          <mxGeometry x="215" y="47.5" width="210" height="70" as="geometry"/>
        </mxCell>
        <mxCell id="Tt6b6GPpEEZbe05YhQ2s-14" value="" style="endArrow=classic;html=1;" edge="1" parent="1">
          <mxGeometry width="50" height="50" relative="1" as="geometry">
            <mxPoint x="380" y="173" as="sourcePoint"/>
            <mxPoint x="560" y="173" as="targetPoint"/>
          </mxGeometry>
        </mxCell>
        <mxCell id="Tt6b6GPpEEZbe05YhQ2s-15" value="/로그인?id&amp;amp;pass&lt;br&gt;&amp;amp;client_id&amp;amp;client_secret" style="text;html=1;strokeColor=none;fillColor=none;align=center;verticalAlign=middle;whiteSpace=wrap;rounded=0;fontSize=14;" vertex="1" parent="1">
          <mxGeometry x="420" y="145" width="110" height="20" as="geometry"/>
        </mxCell>
        <mxCell id="Tt6b6GPpEEZbe05YhQ2s-18" value="&lt;h1&gt;Authorization Server&lt;/h1&gt;&lt;p&gt;인증서버&lt;/p&gt;" style="text;html=1;strokeColor=none;fillColor=none;spacing=5;spacingTop=-20;whiteSpace=wrap;overflow=hidden;rounded=0;align=center;" vertex="1" parent="1">
          <mxGeometry x="841.25" y="47.5" width="270" height="70" as="geometry"/>
        </mxCell>
        <mxCell id="Tt6b6GPpEEZbe05YhQ2s-20" value="/토큰발급?id&amp;amp;pass&lt;br&gt;&amp;amp;client_id&amp;amp;client_secret" style="text;html=1;strokeColor=none;fillColor=none;align=center;verticalAlign=middle;whiteSpace=wrap;rounded=0;fontSize=14;" vertex="1" parent="1">
          <mxGeometry x="720" y="145" width="160" height="20" as="geometry"/>
        </mxCell>
        <mxCell id="Tt6b6GPpEEZbe05YhQ2s-21" value="" style="endArrow=classic;html=1;" edge="1" parent="1">
          <mxGeometry width="50" height="50" relative="1" as="geometry">
            <mxPoint x="710" y="172" as="sourcePoint"/>
            <mxPoint x="900" y="172" as="targetPoint"/>
          </mxGeometry>
        </mxCell>
        <mxCell id="Tt6b6GPpEEZbe05YhQ2s-23" value="" style="endArrow=none;html=1;startArrow=classic;startFill=1;endFill=0;" edge="1" parent="1">
          <mxGeometry width="50" height="50" relative="1" as="geometry">
            <mxPoint x="710" y="182" as="sourcePoint"/>
            <mxPoint x="900" y="182" as="targetPoint"/>
          </mxGeometry>
        </mxCell>
        <mxCell id="Tt6b6GPpEEZbe05YhQ2s-24" value="access_token, scope=A,B" style="text;html=1;strokeColor=none;fillColor=none;align=center;verticalAlign=middle;whiteSpace=wrap;rounded=0;fontSize=14;" vertex="1" parent="1">
          <mxGeometry x="720" y="185" width="170" height="20" as="geometry"/>
        </mxCell>
        <mxCell id="Tt6b6GPpEEZbe05YhQ2s-25" value="" style="endArrow=none;html=1;startArrow=classic;startFill=1;endFill=0;" edge="1" parent="1">
          <mxGeometry width="50" height="50" relative="1" as="geometry">
            <mxPoint x="380" y="182" as="sourcePoint"/>
            <mxPoint x="550" y="182" as="targetPoint"/>
          </mxGeometry>
        </mxCell>
        <mxCell id="Tt6b6GPpEEZbe05YhQ2s-26" value="access_token, scope=A,B" style="text;html=1;strokeColor=none;fillColor=none;align=center;verticalAlign=middle;whiteSpace=wrap;rounded=0;fontSize=14;" vertex="1" parent="1">
          <mxGeometry x="390" y="185" width="170" height="20" as="geometry"/>
        </mxCell>
        <mxCell id="Tt6b6GPpEEZbe05YhQ2s-28" value="/oauth/token&lt;br&gt;/oauth/check_token" style="ellipse;whiteSpace=wrap;html=1;aspect=fixed;" vertex="1" parent="1">
          <mxGeometry x="910" y="151.25" width="132.5" height="132.5" as="geometry"/>
        </mxCell>
        <mxCell id="Tt6b6GPpEEZbe05YhQ2s-29" value="" style="endArrow=classic;html=1;strokeColor=#FF3333;" edge="1" parent="1">
          <mxGeometry width="50" height="50" relative="1" as="geometry">
            <mxPoint x="120" y="205" as="sourcePoint"/>
            <mxPoint x="260" y="205" as="targetPoint"/>
          </mxGeometry>
        </mxCell>
        <mxCell id="Tt6b6GPpEEZbe05YhQ2s-30" value="계좌조회" style="text;html=1;strokeColor=none;fillColor=none;align=center;verticalAlign=middle;whiteSpace=wrap;rounded=0;fontSize=14;fontColor=#FF3333;" vertex="1" parent="1">
          <mxGeometry x="140" y="185" width="100" height="20" as="geometry"/>
        </mxCell>
        <mxCell id="Tt6b6GPpEEZbe05YhQ2s-31" value="" style="endArrow=classic;html=1;strokeColor=#FF3333;" edge="1" parent="1">
          <mxGeometry width="50" height="50" relative="1" as="geometry">
            <mxPoint x="380" y="249" as="sourcePoint"/>
            <mxPoint x="560" y="249" as="targetPoint"/>
          </mxGeometry>
        </mxCell>
        <mxCell id="Tt6b6GPpEEZbe05YhQ2s-32" value="/account?access_token&lt;br&gt;&amp;amp;scope=A" style="text;html=1;strokeColor=none;fillColor=none;align=center;verticalAlign=middle;whiteSpace=wrap;rounded=0;fontSize=14;fontColor=#FF3333;" vertex="1" parent="1">
          <mxGeometry x="390" y="219" width="160" height="20" as="geometry"/>
        </mxCell>
        <mxCell id="Tt6b6GPpEEZbe05YhQ2s-33" value="" style="endArrow=classic;html=1;strokeColor=#FF3333;" edge="1" parent="1">
          <mxGeometry width="50" height="50" relative="1" as="geometry">
            <mxPoint x="580" y="280" as="sourcePoint"/>
            <mxPoint x="430" y="430" as="targetPoint"/>
          </mxGeometry>
        </mxCell>
        <mxCell id="Tt6b6GPpEEZbe05YhQ2s-34" value="/account?access_token&lt;br&gt;&amp;amp;scope=A" style="text;html=1;strokeColor=none;fillColor=none;align=center;verticalAlign=middle;whiteSpace=wrap;rounded=0;fontSize=14;fontColor=#FF3333;rotation=-45;" vertex="1" parent="1">
          <mxGeometry x="410" y="330" width="160" height="20" as="geometry"/>
        </mxCell>
        <mxCell id="Tt6b6GPpEEZbe05YhQ2s-35" value="" style="endArrow=classic;html=1;strokeColor=#FF3333;" edge="1" parent="1">
          <mxGeometry width="50" height="50" relative="1" as="geometry">
            <mxPoint x="470" y="470" as="sourcePoint"/>
            <mxPoint x="910" y="250" as="targetPoint"/>
          </mxGeometry>
        </mxCell>
        <mxCell id="Tt6b6GPpEEZbe05YhQ2s-36" value="/oauth/check_token?access_token" style="text;html=1;strokeColor=none;fillColor=none;align=center;verticalAlign=middle;whiteSpace=wrap;rounded=0;fontSize=14;fontColor=#FF3333;rotation=333;" vertex="1" parent="1">
          <mxGeometry x="550" y="340" width="258.2" height="20" as="geometry"/>
        </mxCell>
        <mxCell id="Tt6b6GPpEEZbe05YhQ2s-37" value="" style="shape=datastore;whiteSpace=wrap;html=1;" vertex="1" parent="1">
          <mxGeometry x="946.25" y="310" width="193.75" height="100" as="geometry"/>
        </mxCell>
        <mxCell id="Tt6b6GPpEEZbe05YhQ2s-41" value="" style="endArrow=none;html=1;strokeColor=#000000;fontSize=14;fontColor=#FF3333;entryX=0.5;entryY=1;entryDx=0;entryDy=0;exitX=0.5;exitY=0;exitDx=0;exitDy=0;" edge="1" parent="1" source="Tt6b6GPpEEZbe05YhQ2s-37" target="Tt6b6GPpEEZbe05YhQ2s-28">
          <mxGeometry width="50" height="50" relative="1" as="geometry">
            <mxPoint x="1070" y="430" as="sourcePoint"/>
            <mxPoint x="1120" y="380" as="targetPoint"/>
          </mxGeometry>
        </mxCell>
        <mxCell id="Tt6b6GPpEEZbe05YhQ2s-44" value="" style="shape=datastore;whiteSpace=wrap;html=1;" vertex="1" parent="1">
          <mxGeometry x="280" y="219" width="80" height="71" as="geometry"/>
        </mxCell>
        <mxCell id="Tt6b6GPpEEZbe05YhQ2s-42" value="client_id&lt;br style=&quot;font-size: 10px;&quot;&gt;client_secret&lt;br style=&quot;font-size: 10px;&quot;&gt;access_token" style="text;html=1;align=center;verticalAlign=middle;resizable=0;points=[];autosize=1;fontSize=10;fontColor=#000000;" vertex="1" parent="1">
          <mxGeometry x="280" y="243.75" width="80" height="40" as="geometry"/>
        </mxCell>
        <mxCell id="Tt6b6GPpEEZbe05YhQ2s-46" value="" style="endArrow=none;html=1;strokeColor=#FF3333;startArrow=classic;startFill=1;endFill=0;" edge="1" parent="1">
          <mxGeometry width="50" height="50" relative="1" as="geometry">
            <mxPoint x="470.7" y="480" as="sourcePoint"/>
            <mxPoint x="910.7" y="260" as="targetPoint"/>
          </mxGeometry>
        </mxCell>
        <mxCell id="Tt6b6GPpEEZbe05YhQ2s-47" value="active=true" style="text;html=1;strokeColor=none;fillColor=none;align=center;verticalAlign=middle;whiteSpace=wrap;rounded=0;fontSize=14;fontColor=#FF3333;rotation=333;" vertex="1" parent="1">
          <mxGeometry x="580.0000000000001" y="360" width="258.2" height="20" as="geometry"/>
        </mxCell>
        <mxCell id="Tt6b6GPpEEZbe05YhQ2s-48" value="" style="endArrow=none;html=1;strokeColor=#FF3333;startArrow=classic;startFill=1;endFill=0;" edge="1" parent="1">
          <mxGeometry width="50" height="50" relative="1" as="geometry">
            <mxPoint x="590" y="283.75" as="sourcePoint"/>
            <mxPoint x="440" y="433.75" as="targetPoint"/>
          </mxGeometry>
        </mxCell>
        <mxCell id="Tt6b6GPpEEZbe05YhQ2s-49" value="계좌조회결과" style="text;html=1;strokeColor=none;fillColor=none;align=center;verticalAlign=middle;whiteSpace=wrap;rounded=0;fontSize=14;fontColor=#FF3333;rotation=-45;" vertex="1" parent="1">
          <mxGeometry x="440" y="360" width="160" height="20" as="geometry"/>
        </mxCell>
        <mxCell id="Tt6b6GPpEEZbe05YhQ2s-50" value="" style="endArrow=none;html=1;strokeColor=#FF3333;startArrow=classic;startFill=1;endFill=0;" edge="1" parent="1">
          <mxGeometry width="50" height="50" relative="1" as="geometry">
            <mxPoint x="380" y="263.25" as="sourcePoint"/>
            <mxPoint x="560" y="263.25" as="targetPoint"/>
          </mxGeometry>
        </mxCell>
        <mxCell id="Tt6b6GPpEEZbe05YhQ2s-51" value="계좌조회결과" style="text;html=1;strokeColor=none;fillColor=none;align=center;verticalAlign=middle;whiteSpace=wrap;rounded=0;fontSize=14;fontColor=#FF3333;rotation=0;" vertex="1" parent="1">
          <mxGeometry x="395" y="263.75" width="160" height="20" as="geometry"/>
        </mxCell>
        <mxCell id="Tt6b6GPpEEZbe05YhQ2s-54" value="id, pass" style="text;html=1;align=left;verticalAlign=middle;resizable=0;points=[];autosize=1;fontSize=10;fontColor=#000000;" vertex="1" parent="1">
          <mxGeometry x="977.5" y="360" width="50" height="20" as="geometry"/>
        </mxCell>
      </root>
    </mxGraphModel>
  </diagram>
</mxfile>
